<svg viewBox="0 0 3000 3000" xmlns="http://www.w3.org/2000/svg"><path fill="#1f2328" d="m890.667 2462.667h194.667l96-522.667h446.667l-94.667 522.667h194.667l97.333-522.667h338.667l38.667-194.667h-340l94.667-510.667h329.333l38.667-194.667h-330.667l93.333-502.667h-194.667l-96 502.667h-446.667l94.667-502.667h-194.667l-93.333 502.667h-322.667l-38.667 194.667h324l-94.667 510.667h-312l-38.667 194.667h313.333l-97.333 522.667zm321.333-712 98.667-521.333h457.333l-98.667 521.333zm277.333-90.667c94.667 0 170.667-76 170.667-170.667s-76-170.667-170.667-170.667-170.667 76-170.667 170.667 76 170.667 170.667 170.667"/></svg>
