<svg viewBox="0 0 3000 3000" xmlns="http://www.w3.org/2000/svg"><path fill="#f0f6fc" d="m1496 1985.333c94.667 0 170.667-76 170.667-170.667s-76-170.667-170.667-170.667-170.667 76-170.667 170.667 76 170.667 170.667 170.667zm-196-757.333c60 0 106.667-46.667 106.667-106.667s-46.667-106.667-106.667-106.667c-58.667 0-106.667 46.667-106.667 106.667s48 106.667 106.667 106.667zm400 0c60 0 106.667-46.667 106.667-106.667s-46.667-106.667-106.667-106.667-106.667 46.667-106.667 106.667 46.667 106.667 106.667 106.667"/></svg>
